<svg width="20" height="20" viewBox="0 0 20 20" fill="none" xmlns="http://www.w3.org/2000/svg">
<g opacity="0.5">
<g clip-path="url(#clip0)">
<path d="M4.70306 6.27588H0.9375C0.613861 6.27588 0.351562 6.53833 0.351562 6.86182V19.414C0.351562 19.7376 0.613861 19.9999 0.9375 19.9999H4.70306C5.0267 19.9999 5.289 19.7376 5.289 19.414V6.86182C5.289 6.53833 5.0267 6.27588 4.70306 6.27588ZM4.11713 18.8281H1.52344V7.44775H4.11713V18.8281Z" fill="black"/>
<path d="M2.82043 0C1.45905 0 0.351562 1.10748 0.351562 2.46857C0.351562 3.82996 1.45905 4.93729 2.82043 4.93729C4.18167 4.93729 5.289 3.8298 5.289 2.46857C5.289 1.10748 4.18167 0 2.82043 0ZM2.82043 3.76541C2.10526 3.76541 1.52344 3.18375 1.52344 2.46857C1.52344 1.75354 2.10526 1.17188 2.82043 1.17188C3.53546 1.17188 4.11713 1.75354 4.11713 2.46857C4.11713 3.18375 3.53546 3.76541 2.82043 3.76541Z" fill="black"/>
<path d="M14.117 6.19312C13.2264 6.19312 12.3485 6.40781 11.5624 6.80942C11.5357 6.5105 11.2847 6.27597 10.9788 6.27597H7.21289C6.8894 6.27597 6.62695 6.53842 6.62695 6.86191V19.4141C6.62695 19.7377 6.8894 20 7.21289 20H10.9788C11.3024 20 11.5647 19.7377 11.5647 19.4141V12.5104C11.5647 11.6223 12.2874 10.8998 13.1754 10.8998C14.0635 10.8998 14.7858 11.6223 14.7858 12.5104V19.4141C14.7858 19.7377 15.0483 20 15.3718 20H19.1375C19.4611 20 19.7234 19.7377 19.7234 19.4141V11.7995C19.7234 8.70807 17.2085 6.19312 14.117 6.19312ZM18.5515 18.8282H15.9579V12.5104C15.9579 10.9761 14.7097 9.72797 13.1756 9.72797C11.6411 9.72797 10.3928 10.9761 10.3928 12.5104V18.8282H7.79898V7.44785H10.3928V7.88074C10.3928 8.10611 10.5221 8.31149 10.7253 8.409C10.9284 8.5065 11.1695 8.47873 11.3454 8.33789C12.1389 7.70145 13.0974 7.36499 14.117 7.36499C16.5623 7.36499 18.5515 9.35428 18.5515 11.7995V18.8282Z" fill="black"/>
</g>
</g>
<defs>
<clipPath id="clip0">
<rect width="20" height="20" fill="white"/>
</clipPath>
</defs>
</svg>
