<svg width="20" height="20" viewBox="0 0 20 20" fill="none" xmlns="http://www.w3.org/2000/svg">
<g opacity="0.5">
<path d="M14.7258 0H5.27226C2.31613 0 0 2.31677 0 5.27355V14.7271C0 17.6839 2.31613 20 5.27226 20H14.7258C17.6832 20 20 17.6839 20 14.7265V5.27355C20 2.31677 17.6832 0 14.7258 0ZM18.7097 14.7265C18.7097 16.9968 16.9974 18.709 14.7258 18.709H5.27226C3.00194 18.709 1.29032 16.9974 1.29032 14.7265V5.27355C1.29032 3.00258 3.00194 1.29032 5.27226 1.29032H14.7258C16.9974 1.29032 18.7097 3.00258 18.7097 5.27355V14.7265Z" fill="black"/>
<path d="M10.2847 4.09155C6.95246 4.09155 5.27246 6.40381 5.27246 8.33155C5.27246 9.49929 5.72923 10.5374 6.70794 10.9251C6.74923 10.9412 6.78988 10.9496 6.82794 10.9496C6.93762 10.9496 7.02601 10.8825 7.05956 10.7548C7.09246 10.6361 7.16859 10.3361 7.20343 10.2096C7.24988 10.0393 7.23246 9.98058 7.10278 9.8322C6.8202 9.50962 6.63891 9.0922 6.63891 8.50187C6.63891 6.78575 7.96665 5.25091 10.0931 5.25091C11.9763 5.25091 13.0112 6.36446 13.0112 7.85155C13.0112 9.80833 12.1163 11.4606 10.7879 11.4606C10.0531 11.4606 9.50472 10.8728 9.68085 10.1528C9.89182 9.29284 10.3008 8.3651 10.3008 7.7451C10.3008 7.18897 9.99182 6.72639 9.3544 6.72639C8.60343 6.72639 8.00085 7.47671 8.00085 8.48317C8.00085 9.12317 8.22472 9.55736 8.22472 9.55736C8.22472 9.55736 7.45827 12.7045 7.32343 13.2561C7.05504 14.3535 7.28278 15.6993 7.30214 15.8348C7.30859 15.8832 7.34988 15.9096 7.39246 15.9096C7.42085 15.9096 7.44988 15.898 7.46859 15.8735C7.53827 15.787 8.43117 14.7193 8.73504 13.6522C8.82214 13.3503 9.22859 11.787 9.22859 11.787C9.47246 12.2367 10.1847 12.6322 10.9428 12.6322C13.197 12.6322 14.7267 10.6445 14.7267 7.98187C14.726 5.96704 12.9641 4.09155 10.2847 4.09155Z" fill="black"/>
</g>
</svg>
